<svg width="16" height="17" viewBox="0 0 16 17" fill="none" xmlns="http://www.w3.org/2000/svg">
<path d="M4.33203 2.16666H6.9987V0.166656H4.33203V2.16666ZM2.33203 8.21428V4.16666H0.332031V8.21428H2.33203ZM0.332031 8.21428C0.332031 10.0289 1.8031 11.5 3.61775 11.5V9.49999C2.90767 9.49999 2.33203 8.92436 2.33203 8.21428H0.332031ZM6.9987 2.16666C7.73508 2.16666 8.33203 2.76361 8.33203 3.49999H10.332C10.332 1.65904 8.83965 0.166656 6.9987 0.166656V2.16666ZM4.33203 0.166656C2.12289 0.166656 0.332031 1.95752 0.332031 4.16666H2.33203C2.33203 3.06209 3.22746 2.16666 4.33203 2.16666V0.166656Z" fill="#ffffff"/>
<rect x="6.66797" y="6.5" width="8" height="9.33333" rx="3" stroke="#ffffff" stroke-width="2"/>
</svg>
